<svg width="131" height="131" viewBox="0 0 131 131" fill="none" xmlns="http://www.w3.org/2000/svg">
<circle cx="65.5" cy="65.5" r="64.5" stroke="#67A277" stroke-width="2"/>
<path d="M64.5858 99.4142C65.3668 100.195 66.6332 100.195 67.4142 99.4142L80.1421 86.6863C80.9232 85.9052 80.9232 84.6389 80.1421 83.8579C79.3611 83.0768 78.0948 83.0768 77.3137 83.8579L66 95.1716L54.6863 83.8579C53.9052 83.0768 52.6389 83.0768 51.8579 83.8579C51.0768 84.6389 51.0768 85.9052 51.8579 86.6863L64.5858 99.4142ZM68 33C68 31.8954 67.1046 31 66 31C64.8954 31 64 31.8954 64 33H68ZM68 98V33H64V98H68Z" fill="#4A7856"/>
</svg>
