<svg width="92" height="5" viewBox="0 0 92 5" fill="none" xmlns="http://www.w3.org/2000/svg">
<path d="M2.75 1C1.7835 1 1 1.7835 1 2.75C1 3.7165 1.7835 4.5 2.75 4.5C3.7165 4.5 4.5 3.7165 4.5 2.75C4.5 1.7835 3.7165 1 2.75 1Z" stroke="#36593F" stroke-miterlimit="10"/>
<path d="M46 1C45.0335 1 44.25 1.7835 44.25 2.75C44.25 3.7165 45.0335 4.5 46 4.5C46.9665 4.5 47.75 3.7165 47.75 2.75C47.75 1.7835 46.9665 1 46 1Z" stroke="#36593F" stroke-miterlimit="10"/>
<path d="M89.25 1C88.2835 1 87.5 1.7835 87.5 2.75C87.5 3.7165 88.2835 4.5 89.25 4.5C90.2165 4.5 91 3.7165 91 2.75C91 1.7835 90.2165 1 89.25 1Z" stroke="#36593F" stroke-miterlimit="10"/>
</svg>
