<?xml version="1.0" encoding="UTF-8"?>
<svg width="1200pt" height="1200pt" version="1.1" viewBox="0 0 1200 1200" xmlns="http://www.w3.org/2000/svg">
 <path d="m399.19 825.98 189.14 150.19c6.8438 5.4375 16.5 5.4375 23.344 0l189.19-150.19c8.1094-6.4688 9.4688-18.234 3-26.344-3.7031-4.6406-9.1875-7.0781-14.719-7.0781-4.0781 0-8.2031 1.3594-11.625 4.0781l-158.76 126.05v-414.14c0-10.359-8.3906-18.75-18.75-18.75s-18.75 8.3906-18.75 18.75v414.14l-158.76-126.05c-8.1094-6.375-19.922-5.1094-26.344 3s-5.0625 19.922 3.0469 26.344z"/>
 <path d="m600 365.26c10.359 0 18.75-8.3906 18.75-18.75v-108c0-10.359-8.3906-18.75-18.75-18.75s-18.75 8.3906-18.75 18.75v108c0 10.359 8.3438 18.75 18.75 18.75z"/>
</svg>
